<svg version="1.2" xmlns="http://www.w3.org/2000/svg" viewBox="0 0 364 398" width="364" height="398"><style>.a{fill:#e5322d}.b{fill:#fff}</style><path class="a" d="m126.3 157.5c-4.8 2.4-8.4 6.2-11 10.7-4.2-7.1-10.9-12.9-21-12.9-10.2 0-22.6 8.6-22.6 23.2 0 14.7 12.3 21.7 18.3 25.6 6.6 4.3 17.7 11.9 25.3 26.1 7.7-14.2 18.8-21.8 25.3-26.1 4.6-2.9 12.6-7.6 16.4-16zm-0.4 31.4v-27.7l27.7 27.7c0 0-27.7 0-27.7 0z"/><path  d="m32.5 214.2h3.4c1.1 0 2.3-1.5 2.3-2.5v-36.5c0-1-1.2-2.4-2.3-2.4h-3.4v-8.8h27.5v8.8h-3.5c-1.1 0-2.3 1.4-2.3 2.4v36.5c0 1 1.2 2.5 2.3 2.5h3.5v8.4h-27.5z"/><path  d="m165.4 214.2h2.8c1.2 0 2.5-1.5 2.5-2.5v-36.5c0-1-1.3-2.4-2.5-2.4h-2.8v-8.8h26.6c15.7 0 24.2 5.5 24.2 18.6 0 12.7-9 18.5-24.8 18.5h-4.8v13.1h6.7v8.4h-27.9zm25.8-21.7c7 0 8.8-4 8.8-9.6 0-5.5-1.8-9.4-8.8-9.4h-4.9v19c0 0 4.9 0 4.9 0z"/><path  d="m221.3 214.2h2.8c1.2 0 2.5-1.5 2.5-2.5v-36.5c0-1-1.3-2.4-2.5-2.4h-2.8v-8.8h25.5c20.9 0 31.8 9.1 31.8 29 0 19.6-11.1 29.6-32.2 29.6h-25.1zm25.1-0.4c10.6 0 15.7-6.3 15.7-20.3 0-14-5.1-20-15.7-20h-3.9v40.3c0 0 3.9 0 3.9 0z"/><path  d="m283.9 214.2h2.9c1.1 0 2.4-1.5 2.4-2.5v-36.5c0-1-1.3-2.4-2.4-2.4h-2.9v-8.8h47.6v18.1h-9.3l-1.5-8.6h-15.6v16.4h7.6l0.7-5.5h8.6v20.3h-8.6l-0.7-5.8h-7.6v15.3h6.8v8.4h-28c0 0 0-8.4 0-8.4z"/><path fill-rule="evenodd" class="b" d="m125.9 188.9v-27.6l27.7 27.6z"/></svg>